<?xml version="1.0" encoding="UTF-8"?>
<svg width="170px" height="153px" viewBox="0 0 170 153" version="1.1" xmlns="http://www.w3.org/2000/svg" xmlns:xlink="http://www.w3.org/1999/xlink">
    <!-- Generator: Sketch 49.3 (51167) - http://www.bohemiancoding.com/sketch -->
    <title>logo</title>
    <desc>Created with Sketch.</desc>
    <defs></defs>
    <g id="TravelHero-App" stroke="none" stroke-width="1" fill="none" fill-rule="evenodd">
        <g id="Log-In" transform="translate(-556.000000, -146.000000)" fill="#00443E">
            <g id="dialog" transform="translate(500.000000, 106.000000)">
                <g id="logo" transform="translate(56.000000, 40.000000)">
                    <g id="noun_30943_cc" transform="translate(41.000000, 0.000000)" fill-rule="nonzero">
                        <path d="M44.3901187,76 C43.6237218,76 43,75.0846092 43,73.9549177 C43,72.8252262 43.6227577,71.9098354 44.3901187,71.9098354 C49.302771,71.9098354 53.3641926,71.0327634 53.4046815,71.0228289 C54.1633662,70.855362 54.8709578,71.6274125 54.9847123,72.742912 C55.0975028,73.8612498 54.5740393,74.9029503 53.8153545,75.0704171 C53.6399027,75.1058974 49.5071435,76 44.3901187,76 Z" id="Shape"></path>
                        <path d="M90.4202525,22.816761 C89.8369002,22.3574253 88.999673,22.435216 88.2828497,23.0806938 L83.1437494,27.7175768 L82.3093223,27.3054712 C81.7231699,27.0137559 81.0548815,26.9674519 80.4295279,27.1748939 C80.2428551,27.2369412 80.0701829,27.3258449 79.9068442,27.4258616 L79.9068442,22.5139328 C79.9068442,16.5972072 76.6746059,10.8768105 70.8046818,6.40384375 C65.5433109,2.39391701 58.7922915,0 52.744095,0 L38.2022892,0 C32.1550261,0 25.4030734,2.39391701 20.1407691,6.40384375 C14.2717784,10.8768105 11.0404734,16.5972072 11.0404734,22.5139328 L11.0404734,27.3915966 C10.8911352,27.3045451 10.7343301,27.2304587 10.5663246,27.1748939 C9.940971,26.9674519 9.27361598,27.0137559 8.68653024,27.3054712 L7.85303649,27.7175768 L2.71300282,23.0806938 C1.9971129,22.435216 1.15895233,22.3574253 0.576533409,22.816761 C0.275056947,23.0556897 -0.0712209703,23.5289166 0.012781759,24.4198056 L1.11788433,36.1430534 C1.19628688,36.9839341 1.70310335,37.6590464 2.43859391,37.9016794 C2.94447701,38.070226 3.51569557,38.0174394 4.04491277,37.7562849 L5.63443108,36.9681907 L8.6361286,42.9349247 C8.65106242,42.9645592 8.67439651,42.9895634 8.6902637,43.019198 C8.7107977,43.0710584 8.73506515,43.1219928 8.76306606,43.170149 C9.28481635,44.0897465 10.1043096,44.7204071 11.0414068,45.1093607 L11.0414068,54.8369059 C11.0414068,55.000822 11.0591407,55.16196 11.0936751,55.3156893 C11.3531502,73.9336032 26.6985821,89 45.5245271,89 C64.511944,89 79.9572459,73.6733747 79.9572459,54.8359798 C79.9572459,54.6757679 79.9404453,54.5192604 79.908711,54.3701615 L79.908711,45.1288084 C80.8654087,44.7417069 81.7045026,44.1054899 82.2355866,43.170149 C82.2626541,43.1219928 82.2878549,43.0710584 82.3074556,43.019198 C82.3251895,42.9886373 82.3466568,42.9636331 82.362524,42.9349247 L85.3651549,36.9681907 L86.9546732,37.7562849 C87.4838904,38.0174394 88.0541756,38.070226 88.5609921,37.9016794 C89.2955493,37.6581204 89.8014324,36.9839341 89.8807683,36.1430534 L90.9877376,24.4198056 C91.0698736,23.5289166 90.7235957,23.0556897 90.4202525,22.816761 Z M54.0032026,40.5928681 C54.1777416,40.4150608 58.3834783,36.2125094 66.0977289,34.9104408 C66.6941483,34.8122763 67.2840341,35.1160306 67.5425758,35.6587135 L68.4712727,37.6182989 C68.9958231,38.7268168 69.0555583,39.9714684 68.6364781,41.123512 C68.2183311,42.2755556 67.3727037,43.1970053 66.2554674,43.7174623 C66.2013323,43.7424665 66.1471972,43.7646924 66.090262,43.7822879 L59.9029943,45.7316865 C59.843259,45.7511342 59.781657,45.7650254 59.7209884,45.7752123 C59.4801806,45.8168859 59.2347059,45.8363336 58.9873645,45.8363336 C56.5960869,45.8363336 54.5986886,43.9184217 53.7539945,42.1366436 C53.6905258,42.0042142 53.6494578,41.8615979 53.6335906,41.7152772 C53.5887891,41.3179888 53.7213268,40.8790269 54.0032026,40.5928681 Z M22.9501937,37.6173728 L23.8798239,35.6577874 C24.1374322,35.1151045 24.7282514,34.8113502 25.3228041,34.9095147 C33.0379881,36.2106572 37.2437247,40.4132086 37.4191971,40.5919421 C37.7001396,40.8781008 37.8326772,41.3170628 37.7888091,41.7143511 C37.7720086,41.8606718 37.7318739,42.0032881 37.6693386,42.1357176 C36.8246445,43.9174956 34.8263129,45.8354075 32.4341018,45.8354075 C32.1886272,45.8354075 31.9412858,45.8159598 31.700478,45.7742862 C31.6398093,45.7640993 31.5791407,45.7502081 31.5194054,45.7307604 L25.3321377,43.7813619 C25.2752025,43.7637663 25.2201341,43.7424665 25.165999,43.7165363 C24.0496961,43.1960792 23.2040686,42.2746296 22.7849883,41.1225859 C22.365908,39.9705423 22.4247099,38.7268168 22.9501937,37.6173728 Z M45.5245271,84.5631503 C31.6043415,84.5631503 19.8728937,75.0949076 16.5230515,62.309446 L21.7862892,65.535909 C22.2184366,65.8026201 22.7168528,65.9415321 23.225536,65.9415321 C23.6810174,65.9415321 24.1346322,65.8276242 24.5331784,65.6127737 L46.4093559,53.8135874 L68.2015306,65.6118476 C69.064892,66.0776659 70.1671945,66.0369183 70.9913546,65.5109049 L74.1881251,63.4716765 C70.4490703,75.6635208 59.0172322,84.5631503 45.5245271,84.5631503 Z M38.9340463,6.7455673 L51.4852354,6.7455673 L51.4852354,10.0194051 L47.2741611,10.0194051 L47.2741611,20.0037059 L43.1451207,20.0037059 L43.1451207,10.0194051 L38.9340463,10.0194051 L38.9340463,6.7455673 Z" id="Combined-Shape"></path>
                    </g>
                    <text id="TravelHero" font-family="HelveticaNeue-Medium, Helvetica Neue" font-size="32" font-weight="400">
                        <tspan x="0" y="148">Travel</tspan>
                        <tspan x="87.2" y="148" font-family="Arial-Black, Arial Black" font-weight="700">Hero</tspan>
                    </text>
                </g>
            </g>
        </g>
    </g>
</svg>