<?xml version="1.0" encoding="UTF-8"?>
<svg width="168px" height="39px" viewBox="0 0 168 39" version="1.1" xmlns="http://www.w3.org/2000/svg" xmlns:xlink="http://www.w3.org/1999/xlink">
    <!-- Generator: Sketch 49.3 (51167) - http://www.bohemiancoding.com/sketch -->
    <title>logo</title>
    <desc>Created with Sketch.</desc>
    <defs></defs>
    <g id="TravelHero-App" stroke="none" stroke-width="1" fill="none" fill-rule="evenodd">
        <g id="369_Lex_Search" transform="translate(-1088.000000, -70.000000)" fill="#00443E">
            <g id="logo" transform="translate(1088.000000, 70.000000)">
                <g id="noun_30943_cc" transform="translate(128.000000, 0.000000)" fill-rule="nonzero">
                    <path d="M19.5792161,33 C19.2598841,33 19,32.6338437 19,32.1819671 C19,31.7300905 19.2594824,31.3639342 19.5792161,31.3639342 C21.6261546,31.3639342 23.3184136,31.0131053 23.3352839,31.0091316 C23.6514026,30.9421448 23.9462324,31.250965 23.9936301,31.6971648 C24.0406262,32.1444999 23.8225164,32.5611801 23.5063977,32.6281669 C23.4332928,32.642359 21.7113098,33 19.5792161,33 Z" id="Shape"></path>
                    <path d="M39.7451659,9.99835595 C39.4887473,9.797074 39.1207354,9.83116207 38.8056482,10.1140119 L36.546703,12.1459044 L36.1799219,11.9653188 C35.9222725,11.8374886 35.6285194,11.817198 35.3536386,11.9080996 C35.2715847,11.9352889 35.1956848,11.9742466 35.1238876,12.0180742 L35.1238876,9.86565596 C35.1238876,7.27293349 33.7031235,4.76624282 31.1229371,2.80617872 C28.8102465,1.04901981 25.8427655,0 23.1842176,0 L16.792215,0 C14.1340774,0 11.1661861,1.04901981 8.8530853,2.80617872 C6.27330918,4.76624282 4.85295534,7.27293349 4.85295534,9.86565596 L4.85295534,12.0030592 C4.78731218,11.964913 4.71838686,11.9324482 4.64453831,11.9080996 C4.36965758,11.817198 4.07631472,11.8374886 3.81825505,11.9653188 L3.45188417,12.1459044 L1.19252871,10.1140119 C0.877851823,9.83116207 0.509429597,9.797074 0.253421279,9.99835595 C0.120904153,10.103055 -0.031305921,10.3104241 0.00561835561,10.7008137 L0.491377728,15.8379672 C0.525840386,16.206443 0.748616855,16.5022788 1.07190941,16.6086011 C1.29427561,16.6824586 1.54536069,16.6593274 1.77798363,16.5448889 L2.476673,16.1995442 L3.79610048,18.8141805 C3.8026648,18.8271664 3.81292154,18.8381233 3.81989613,18.8511092 C3.82892206,18.8738346 3.83958908,18.8961542 3.85189717,18.9172563 C4.08123795,19.320226 4.44145479,19.5965829 4.85336561,19.7670232 L4.85336561,24.0296554 C4.85336561,24.1014838 4.86116073,24.1720948 4.87634071,24.2394593 C4.9903957,32.3978711 11.7356405,39 20.0107812,39 C28.3568985,39 35.1460421,32.2838383 35.1460421,24.0292496 C35.1460421,23.9590444 35.1386573,23.8904624 35.1247081,23.8251269 L35.1247081,19.7755452 C35.5452346,19.6059165 35.9140671,19.3271248 36.1475106,18.9172563 C36.1594084,18.8961542 36.1704857,18.8738346 36.1791013,18.8511092 C36.1868965,18.8377175 36.1963327,18.8267606 36.2033073,18.8141805 L37.523145,16.1995442 L38.2218344,16.5448889 C38.4544573,16.6593274 38.7051321,16.6824586 38.9279086,16.6086011 C39.2507909,16.501873 39.4731571,16.206443 39.50803,15.8379672 L39.9946099,10.7008137 C40.0307137,10.3104241 39.8785036,10.103055 39.7451659,9.99835595 Z M23.7376715,17.787886 C23.8143919,17.7099704 25.6630674,15.868403 29.0539468,15.2978336 C29.3161091,15.2548177 29.5753996,15.3879235 29.6890443,15.6257284 L30.0972627,16.4844231 C30.3278343,16.9701781 30.3540916,17.5155873 30.1698805,18.0204154 C29.9860796,18.5252435 29.6143752,18.9290248 29.1232824,19.1570902 C29.0994867,19.1680471 29.0756911,19.1777866 29.0506646,19.185497 L26.3309865,20.0397278 C26.3047292,20.0482498 26.2776514,20.054337 26.2509839,20.0588009 C26.1451343,20.0770623 26.0372334,20.0855844 25.9285119,20.0855844 C24.8774008,20.0855844 23.9994236,19.2451511 23.6281295,18.4643719 C23.6002311,18.406341 23.5821792,18.3438462 23.5752047,18.2797282 C23.5555117,18.1056356 23.61377,17.9132814 23.7376715,17.787886 Z M10.0879972,16.4840173 L10.4966259,15.6253226 C10.6098603,15.3875177 10.8695611,15.2544119 11.1309029,15.2974278 C14.5221926,15.8675914 16.370868,17.7091588 16.4479987,17.7874802 C16.5714899,17.9128756 16.6297482,18.1052298 16.6104655,18.2793224 C16.6030807,18.3434404 16.5854391,18.4059352 16.557951,18.4639661 C16.1866569,19.2447453 15.3082694,20.0851786 14.256748,20.0851786 C14.1488471,20.0851786 14.0401256,20.0766565 13.934276,20.0583951 C13.9076085,20.0539312 13.880941,20.047844 13.8546837,20.039322 L11.1350056,19.1850912 C11.1099791,19.1773808 11.0857732,19.1680471 11.0619776,19.1566844 C10.571295,18.928619 10.1995906,18.5248377 10.0153795,18.0200096 C9.83116836,17.5151815 9.85701536,16.9701781 10.0879972,16.4840173 Z M20.0107812,37.0557625 C13.8920183,37.0557625 8.73533789,32.9067573 7.26287979,27.3041393 L9.57639085,28.7179826 C9.76634574,28.834856 9.98542979,28.8957275 10.2090268,28.8957275 C10.4092384,28.8957275 10.6086295,28.8458129 10.7838147,28.7516649 L20.3997169,23.5812349 L29.9786948,28.7512591 C30.3581943,28.9553817 30.8427228,28.937526 31.204991,28.7070257 L32.6101649,27.8134313 C30.9666243,33.1559248 25.9416405,37.0557625 20.0107812,37.0557625 Z M17.1138665,2.95592275 L22.6308727,2.95592275 L22.6308727,4.39052582 L20.779851,4.39052582 L20.779851,8.7656689 L18.9648882,8.7656689 L18.9648882,4.39052582 L17.1138665,4.39052582 L17.1138665,2.95592275 Z" id="Combined-Shape"></path>
                </g>
                <text id="TravelHero" font-family="HelveticaNeue-Medium, Helvetica Neue" font-size="20" font-weight="400">
                    <tspan x="0" y="23">Travel</tspan>
                    <tspan x="54.5" y="23" font-family="Arial-Black, Arial Black" font-weight="700">Hero</tspan>
                </text>
            </g>
        </g>
    </g>
</svg>